<svg width="32" height="32" viewBox="0 0 32 32" fill="none" xmlns="http://www.w3.org/2000/svg">
<circle cx="16" cy="16" r="16" fill="#FF4444"/>
<path d="M12.7244 13.4545H14.5398V20.3239C14.5398 20.8295 14.4403 21.2386 14.2415 21.5511C14.0426 21.8636 13.7571 22.0923 13.3849 22.2372C13.0156 22.3821 12.5739 22.4545 12.0597 22.4545C11.9972 22.4545 11.9375 22.4531 11.8807 22.4503C11.821 22.4503 11.7585 22.4489 11.6932 22.446V21.027C11.7415 21.0298 11.7841 21.0312 11.821 21.0312C11.8551 21.0341 11.892 21.0355 11.9318 21.0355C12.2244 21.0355 12.429 20.973 12.5455 20.848C12.6648 20.7259 12.7244 20.5412 12.7244 20.294V13.4545ZM13.6278 12.6108C13.3608 12.6108 13.1307 12.5213 12.9375 12.3423C12.7443 12.1605 12.6477 11.9432 12.6477 11.6903C12.6477 11.4403 12.7443 11.2259 12.9375 11.0469C13.1307 10.8651 13.3608 10.7741 13.6278 10.7741C13.9006 10.7741 14.1321 10.8651 14.3224 11.0469C14.5156 11.2259 14.6122 11.4403 14.6122 11.6903C14.6122 11.9432 14.5156 12.1605 14.3224 12.3423C14.1321 12.5213 13.9006 12.6108 13.6278 12.6108ZM21.44 15.321L19.7781 15.4233C19.7496 15.2812 19.6886 15.1534 19.5948 15.0398C19.5011 14.9233 19.3775 14.831 19.2241 14.7628C19.0735 14.6918 18.8931 14.6562 18.6829 14.6562C18.4016 14.6562 18.1644 14.7159 17.9712 14.8352C17.7781 14.9517 17.6815 15.108 17.6815 15.304C17.6815 15.4602 17.744 15.5923 17.869 15.7003C17.994 15.8082 18.2085 15.8949 18.5124 15.9602L19.6971 16.1989C20.3335 16.3295 20.8079 16.5398 21.1204 16.8295C21.4329 17.1193 21.5891 17.5 21.5891 17.9716C21.5891 18.4006 21.4627 18.777 21.2099 19.1009C20.9599 19.4247 20.6161 19.6776 20.1786 19.8594C19.744 20.0384 19.2425 20.1278 18.6744 20.1278C17.8079 20.1278 17.1175 19.9474 16.6033 19.5866C16.092 19.223 15.7923 18.7287 15.7042 18.1037L17.4897 18.0099C17.5437 18.2741 17.6744 18.4759 17.8817 18.6151C18.0891 18.7514 18.3548 18.8196 18.6786 18.8196C18.9968 18.8196 19.2525 18.7585 19.4457 18.6364C19.6417 18.5114 19.7411 18.3509 19.744 18.1548C19.7411 17.9901 19.6715 17.8551 19.5352 17.75C19.3988 17.642 19.1886 17.5597 18.9045 17.5028L17.771 17.277C17.1317 17.1491 16.6559 16.9276 16.3434 16.6122C16.0337 16.2969 15.8789 15.8949 15.8789 15.4062C15.8789 14.9858 15.9925 14.6236 16.2198 14.3196C16.4499 14.0156 16.7724 13.7812 17.1871 13.6165C17.6048 13.4517 18.0934 13.3693 18.6531 13.3693C19.4798 13.3693 20.1303 13.544 20.6048 13.8935C21.082 14.2429 21.3604 14.7187 21.44 15.321Z" fill="#FEFDFB"/>
</svg>
